<svg width="26" height="26" viewBox="0 0 26 26" fill="none" xmlns="http://www.w3.org/2000/svg">
<g clip-path="url(#clip0_4204_32436)">
<path d="M24.2452 13.5063C24.2452 12.5808 24.1704 11.9054 24.0085 11.2051H13.4805V15.3823H19.6602C19.5356 16.4204 18.8628 17.9838 17.3677 19.0343L17.3467 19.1741L20.6755 21.7627L20.9061 21.7858C23.0241 19.8222 24.2452 16.9332 24.2452 13.5063" fill="#4C8BF3"/>
<path d="M13.4821 24.5123C16.5096 24.5123 19.0512 23.5118 20.9077 21.7859L17.3693 19.0343C16.4224 19.6972 15.1515 20.1599 13.4821 20.1599C10.5168 20.1599 8.00005 18.1964 7.10291 15.4824L6.9714 15.4936L3.51011 18.1826L3.46484 18.3089C5.30878 21.9859 9.09638 24.5123 13.4821 24.5123Z" fill="#34A853"/>
<path d="M7.09974 15.4824C6.86302 14.7821 6.72602 14.0316 6.72602 13.2562C6.72602 12.4808 6.86302 11.7304 7.08728 11.03L7.08101 10.8808L3.57634 8.14868L3.46168 8.20343C2.7017 9.72928 2.26562 11.4427 2.26562 13.2562C2.26562 15.0697 2.7017 16.7831 3.46168 18.3089L7.09974 15.4824" fill="#FFD584"/>
<path d="M13.482 6.35234C15.5876 6.35234 17.0079 7.26533 17.8178 8.0283L20.9824 4.92659C19.0389 3.11311 16.5096 2 13.482 2C9.09638 2 5.30878 4.52636 3.46484 8.20333L7.09045 11.0299C8.00005 8.31593 10.5168 6.35234 13.482 6.35234" fill="#EA4335"/>
</g>
<defs>
<clipPath id="clip0_4204_32436">
<rect width="22.6875" height="22.5899" fill="white" transform="translate(2 2)"/>
</clipPath>
</defs>
</svg>
