<svg width="119" height="37" viewBox="0 0 119 37" fill="none" xmlns="http://www.w3.org/2000/svg">
<g clip-path="url(#clip0_6057_28206)">
<path d="M118.336 16.9825H110.011V8.65723H105.591V16.9825H97.2656V21.2737H105.591V29.5991H110.011V21.2737H118.336V16.9825Z" fill="white"/>
<mask id="mask0_6057_28206" style="mask-type:luminance" maskUnits="userSpaceOnUse" x="-16" y="-11" width="151" height="60">
<path d="M134.989 -10.6978H-15.1914V48.9528H134.989V-10.6978Z" fill="white"/>
</mask>
<g mask="url(#mask0_6057_28206)">
<path d="M82.1207 11.1028C84.2666 11.1028 85.64 12.2184 85.64 14.0639C85.64 15.9954 84.2666 17.3681 82.1207 17.3681H78.688V11.1028H82.1207ZM84.8241 21.7452C88.5152 21.2737 91.5623 18.0974 91.5623 14.0639C91.5623 8.82832 88.0004 5.95309 82.2499 5.95309H72.8516V32.3024H78.688V21.8744L85.6813 32.3024H92.4634L84.8241 21.7452ZM38.0551 5.95309H20.6779V11.2746H26.3857V32.3024H32.3506V11.2746H38.0551V5.95309ZM9.69777 15.6105C8.02472 14.8385 7.38067 14.0226 7.38067 12.9503C7.38067 11.7055 8.45364 10.6759 10.0448 10.7185C11.504 10.7611 12.5757 11.5337 13.3922 13.3826L18.4127 11.194C17.0394 7.67476 14.2501 5.61475 9.74306 5.61475C4.97965 5.61475 1.46037 8.74506 1.46037 12.9537C1.46037 15.8289 2.83372 18.1886 6.35299 19.9469L9.87094 21.7052C11.845 22.6923 12.7895 23.4216 12.7895 24.8809C12.7895 26.4254 11.502 27.5416 9.87094 27.5416C8.1113 27.5416 6.5235 26.5546 5.7942 24.3227L0.472656 25.8679C1.6715 30.2024 5.23607 32.734 9.87094 32.734C14.8921 32.734 18.7544 29.5157 18.7544 24.8809C18.7544 21.319 16.8662 18.9159 13.0465 17.155L9.69777 15.6105Z" fill="white"/>
</g>
<mask id="mask1_6057_28206" style="mask-type:luminance" maskUnits="userSpaceOnUse" x="35" y="1" width="36" height="34">
<path d="M49.3599 14.1086C49.3381 14.1755 49.2956 14.2338 49.2387 14.275C49.1817 14.3163 49.1132 14.3385 49.0428 14.3384H35.9102L46.5492 22.0683C46.6028 22.1071 46.6666 22.1291 46.7327 22.1314C46.7988 22.1338 46.864 22.1165 46.9202 22.0816C49.8634 20.2527 52.4362 18.9839 57.9096 17.5526C57.9096 17.5526 49.5177 23.8406 44.0177 30.8858C43.8972 31.0397 43.8045 31.2135 43.7439 31.3993L42.599 34.9232L53.2235 27.204C53.2804 27.1626 53.3489 27.1404 53.4193 27.1404C53.4897 27.1404 53.5582 27.1626 53.6151 27.204L64.2395 34.9232L60.1801 22.4299C60.1583 22.3631 60.1583 22.2911 60.1799 22.2242C60.2016 22.1573 60.2439 22.099 60.3007 22.0576L70.9251 14.3384H57.7931C57.7227 14.3385 57.6542 14.3163 57.5972 14.275C57.5403 14.2338 57.4979 14.1755 57.4761 14.1086L53.418 1.61865L49.3599 14.1086Z" fill="white"/>
</mask>
<g mask="url(#mask1_6057_28206)">
<path d="M53.4159 -15.8881L19.2578 18.27L53.4159 52.4281L87.574 18.27L53.4159 -15.8881Z" fill="white"/>
</g>
</g>
<defs>
<clipPath id="clip0_6057_28206">
<rect width="118.811" height="36" fill="white" transform="translate(0.0820312 0.243164)"/>
</clipPath>
</defs>
</svg>
