<svg width="285" height="193" viewBox="0 0 285 193" fill="none" xmlns="http://www.w3.org/2000/svg">
<g opacity="0.2">
<path d="M278.759 192.274C281.34 192.274 283.432 190.182 283.432 187.601C283.432 185.02 281.34 182.928 278.759 182.928C276.178 182.928 274.086 185.02 274.086 187.601C274.086 190.182 276.178 192.274 278.759 192.274Z" fill="#015584"/>
<path d="M281.132 147.767C282.957 145.942 282.957 142.983 281.132 141.158C279.307 139.333 276.348 139.333 274.523 141.158C272.698 142.983 272.698 145.942 274.523 147.767C276.348 149.592 279.307 149.592 281.132 147.767Z" fill="#015584"/>
<path d="M283.037 102.054C283.63 99.5424 282.075 97.0253 279.563 96.4322C277.051 95.8391 274.534 97.3945 273.941 99.9064C273.348 102.418 274.903 104.935 277.415 105.528C279.927 106.122 282.444 104.566 283.037 102.054Z" fill="#015584"/>
<path d="M278.759 56.1749C281.34 56.1749 283.432 54.0827 283.432 51.5018C283.432 48.9209 281.34 46.8286 278.759 46.8286C276.178 46.8286 274.086 48.9209 274.086 51.5018C274.086 54.0827 276.178 56.1749 278.759 56.1749Z" fill="#015584"/>
<path d="M281.116 11.6765C282.941 9.85151 282.941 6.89263 281.116 5.06765C279.291 3.24266 276.333 3.24266 274.508 5.06765C272.683 6.89263 272.683 9.85151 274.508 11.6765C276.333 13.5015 279.291 13.5015 281.116 11.6765Z" fill="#015584"/>
<path d="M224.634 192.274C227.215 192.274 229.307 190.182 229.307 187.601C229.307 185.02 227.215 182.928 224.634 182.928C222.053 182.928 219.961 185.02 219.961 187.601C219.961 190.182 222.053 192.274 224.634 192.274Z" fill="#015584"/>
<path d="M227.007 147.767C228.832 145.942 228.832 142.983 227.007 141.158C225.182 139.333 222.223 139.333 220.398 141.158C218.573 142.983 218.573 145.942 220.398 147.767C222.223 149.592 225.182 149.592 227.007 147.767Z" fill="#015584"/>
<path d="M228.912 102.054C229.505 99.5424 227.95 97.0253 225.438 96.4322C222.926 95.8391 220.409 97.3945 219.816 99.9064C219.223 102.418 220.778 104.935 223.29 105.528C225.802 106.122 228.319 104.566 228.912 102.054Z" fill="#015584"/>
<path d="M224.634 56.1749C227.215 56.1749 229.307 54.0827 229.307 51.5018C229.307 48.9209 227.215 46.8286 224.634 46.8286C222.053 46.8286 219.961 48.9209 219.961 51.5018C219.961 54.0827 222.053 56.1749 224.634 56.1749Z" fill="#015584"/>
<path d="M226.991 11.6765C228.816 9.85151 228.816 6.89263 226.991 5.06765C225.166 3.24266 222.208 3.24266 220.383 5.06765C218.558 6.89263 218.558 9.85151 220.383 11.6765C222.208 13.5015 225.166 13.5015 226.991 11.6765Z" fill="#015584"/>
<path d="M170.509 192.274C173.09 192.274 175.182 190.182 175.182 187.601C175.182 185.02 173.09 182.928 170.509 182.928C167.928 182.928 165.836 185.02 165.836 187.601C165.836 190.182 167.928 192.274 170.509 192.274Z" fill="#015584"/>
<path d="M172.882 147.767C174.707 145.942 174.707 142.983 172.882 141.158C171.057 139.333 168.098 139.333 166.273 141.158C164.448 142.983 164.448 145.942 166.273 147.767C168.098 149.592 171.057 149.592 172.882 147.767Z" fill="#015584"/>
<path d="M174.787 102.054C175.38 99.5424 173.825 97.0253 171.313 96.4322C168.801 95.8391 166.284 97.3945 165.691 99.9064C165.098 102.418 166.653 104.935 169.165 105.528C171.677 106.122 174.194 104.566 174.787 102.054Z" fill="#015584"/>
<path d="M170.509 56.1749C173.09 56.1749 175.182 54.0827 175.182 51.5018C175.182 48.9209 173.09 46.8286 170.509 46.8286C167.928 46.8286 165.836 48.9209 165.836 51.5018C165.836 54.0827 167.928 56.1749 170.509 56.1749Z" fill="#015584"/>
<path d="M172.866 11.6765C174.691 9.85151 174.691 6.89263 172.866 5.06765C171.041 3.24266 168.083 3.24266 166.258 5.06765C164.433 6.89263 164.433 9.85151 166.258 11.6765C168.083 13.5015 171.041 13.5015 172.866 11.6765Z" fill="#015584"/>
<path d="M116.384 192.274C118.965 192.274 121.057 190.182 121.057 187.601C121.057 185.02 118.965 182.928 116.384 182.928C113.803 182.928 111.711 185.02 111.711 187.601C111.711 190.182 113.803 192.274 116.384 192.274Z" fill="#015584"/>
<path d="M118.757 147.767C120.582 145.942 120.582 142.983 118.757 141.158C116.932 139.333 113.973 139.333 112.148 141.158C110.323 142.983 110.323 145.942 112.148 147.767C113.973 149.592 116.932 149.592 118.757 147.767Z" fill="#015584"/>
<path d="M120.662 102.054C121.255 99.5424 119.7 97.0253 117.188 96.4322C114.676 95.8391 112.159 97.3945 111.566 99.9064C110.973 102.418 112.528 104.935 115.04 105.528C117.552 106.122 120.069 104.566 120.662 102.054Z" fill="#015584"/>
<path d="M116.384 56.1749C118.965 56.1749 121.057 54.0827 121.057 51.5018C121.057 48.9209 118.965 46.8286 116.384 46.8286C113.803 46.8286 111.711 48.9209 111.711 51.5018C111.711 54.0827 113.803 56.1749 116.384 56.1749Z" fill="#015584"/>
<path d="M118.741 11.6765C120.566 9.85151 120.566 6.89263 118.741 5.06765C116.916 3.24266 113.958 3.24266 112.133 5.06765C110.308 6.89263 110.308 9.85151 112.133 11.6765C113.958 13.5015 116.916 13.5015 118.741 11.6765Z" fill="#015584"/>
<path d="M62.2591 192.274C64.84 192.274 66.9323 190.182 66.9323 187.601C66.9323 185.02 64.84 182.928 62.2591 182.928C59.6782 182.928 57.5859 185.02 57.5859 187.601C57.5859 190.182 59.6782 192.274 62.2591 192.274Z" fill="#015584"/>
<path d="M64.632 147.767C66.457 145.942 66.457 142.983 64.632 141.158C62.807 139.333 59.8482 139.333 58.0232 141.158C56.1982 142.983 56.1982 145.942 58.0232 147.767C59.8482 149.592 62.807 149.592 64.632 147.767Z" fill="#015584"/>
<path d="M66.5373 102.054C67.1304 99.5424 65.575 97.0253 63.0631 96.4322C60.5513 95.8391 58.0342 97.3945 57.4411 99.9064C56.848 102.418 58.4034 104.935 60.9153 105.528C63.4271 106.122 65.9442 104.566 66.5373 102.054Z" fill="#015584"/>
<path d="M62.2591 56.1749C64.84 56.1749 66.9323 54.0827 66.9323 51.5018C66.9323 48.9209 64.84 46.8286 62.2591 46.8286C59.6782 46.8286 57.5859 48.9209 57.5859 51.5018C57.5859 54.0827 59.6782 56.1749 62.2591 56.1749Z" fill="#015584"/>
<path d="M64.6164 11.6765C66.4414 9.85151 66.4414 6.89263 64.6164 5.06765C62.7914 3.24266 59.8325 3.24266 58.0075 5.06765C56.1826 6.89263 56.1826 9.85151 58.0075 11.6765C59.8325 13.5015 62.7914 13.5015 64.6164 11.6765Z" fill="#015584"/>
<path d="M8.1341 191.106C10.715 191.106 12.8073 189.013 12.8073 186.432C12.8073 183.852 10.715 181.759 8.1341 181.759C5.55318 181.759 3.46094 183.852 3.46094 186.432C3.46094 189.013 5.55318 191.106 8.1341 191.106Z" fill="#015584"/>
<path d="M10.507 146.599C12.332 144.774 12.332 141.815 10.507 139.99C8.68204 138.165 5.72316 138.165 3.89817 139.99C2.07319 141.815 2.07319 144.774 3.89817 146.599C5.72316 148.424 8.68204 148.424 10.507 146.599Z" fill="#015584"/>
<path d="M12.4123 100.886C13.0054 98.3739 11.45 95.8569 8.93814 95.2638C6.4263 94.6707 3.90924 96.2261 3.31612 98.7379C2.723 101.25 4.27844 103.767 6.79028 104.36C9.30211 104.953 11.8192 103.398 12.4123 100.886Z" fill="#015584"/>
<path d="M8.1341 55.0065C10.715 55.0065 12.8073 52.9142 12.8073 50.3333C12.8073 47.7524 10.715 45.6602 8.1341 45.6602C5.55318 45.6602 3.46094 47.7524 3.46094 50.3333C3.46094 52.9142 5.55318 55.0065 8.1341 55.0065Z" fill="#015584"/>
<path d="M10.4914 10.508C12.3164 8.68305 12.3164 5.72417 10.4914 3.89919C8.66641 2.07421 5.70753 2.07421 3.88255 3.89919C2.05757 5.72417 2.05757 8.68305 3.88255 10.508C5.70753 12.333 8.66641 12.333 10.4914 10.508Z" fill="#015584"/>
</g>
</svg>
