<svg width="300" height="199" viewBox="0 0 355 199" fill="none" xmlns="http://www.w3.org/2000/svg">
<g clip-path="url(#clip0_5986_2449)">
<rect x="0.351562" y="0.84668" width="354" height="198" fill="#FBF7ED"/>
<path d="M47.5036 84.0692C47.3426 83.4726 47.1058 82.947 46.7933 82.4925C46.4808 82.0284 46.0973 81.6354 45.6428 81.3135C45.1882 80.9915 44.6674 80.75 44.0803 80.589C43.4931 80.4186 42.8492 80.3334 42.1484 80.3334C40.7375 80.3334 39.5159 80.6743 38.4837 81.3561C37.4609 82.0379 36.6702 83.0322 36.1115 84.339C35.5528 85.6364 35.2734 87.2131 35.2734 89.0692C35.2734 90.9347 35.5433 92.5256 36.0831 93.8419C36.6229 95.1582 37.4041 96.162 38.4268 96.8532C39.4496 97.5445 40.6901 97.8902 42.1484 97.8902C43.4363 97.8902 44.5253 97.6818 45.4155 97.2652C46.3151 96.839 46.9969 96.2377 47.4609 95.4612C47.925 94.6847 48.157 93.7709 48.157 92.7197L49.4638 92.876H42.3899V87.7481H54.9325V91.5976C54.9325 94.2017 54.3786 96.4318 53.2706 98.2879C52.1721 100.144 50.657 101.569 48.7251 102.563C46.8028 103.558 44.5916 104.055 42.0916 104.055C39.317 104.055 36.8786 103.454 34.7763 102.251C32.674 101.048 31.0357 99.3343 29.8615 97.1089C28.6873 94.8741 28.1001 92.2226 28.1001 89.1544C28.1001 86.768 28.4553 84.6515 29.1655 82.805C29.8757 80.9489 30.8653 79.3769 32.1342 78.089C33.4126 76.8012 34.8899 75.8258 36.5661 75.1629C38.2517 74.5 40.0651 74.1686 42.0064 74.1686C43.692 74.1686 45.2592 74.4101 46.7081 74.893C48.1664 75.376 49.4543 76.0578 50.5717 76.9385C51.6986 77.8192 52.6125 78.8656 53.3132 80.0777C54.014 81.2898 54.4496 82.6203 54.62 84.0692H47.5036ZM69.8756 104.069C67.5934 104.069 65.6237 103.619 63.9665 102.72C62.3188 101.811 61.0498 100.518 60.1597 98.8419C59.279 97.1563 58.8386 95.1534 58.8386 92.8334C58.8386 90.5796 59.2837 88.6099 60.1739 86.9243C61.064 85.2292 62.3188 83.9129 63.9381 82.9754C65.5574 82.0284 67.4655 81.555 69.6625 81.555C71.2155 81.555 72.636 81.7964 73.9239 82.2794C75.2117 82.7623 76.3244 83.4773 77.2619 84.4243C78.1994 85.3712 78.9286 86.5407 79.4494 87.9328C79.9703 89.3154 80.2307 90.9015 80.2307 92.6913V94.4243H61.2676V90.3902H73.7676C73.7581 89.6515 73.583 88.9934 73.242 88.4157C72.9011 87.8381 72.4324 87.3883 71.8358 87.0663C71.2487 86.7349 70.5716 86.5692 69.8045 86.5692C69.028 86.5692 68.332 86.7443 67.7165 87.0947C67.1009 87.4356 66.6133 87.9044 66.2534 88.501C65.8936 89.0881 65.7042 89.7557 65.6852 90.5038V94.6089C65.6852 95.4991 65.8604 96.2803 66.2108 96.9527C66.5612 97.6156 67.0583 98.1317 67.7023 98.501C68.3462 98.8703 69.1133 99.055 70.0034 99.055C70.6189 99.055 71.1777 98.9697 71.6795 98.7993C72.1814 98.6288 72.6123 98.3779 72.9722 98.0464C73.332 97.715 73.6019 97.3078 73.7818 96.8248L80.1597 97.0095C79.8945 98.4394 79.3121 99.6847 78.4125 100.745C77.5223 101.796 76.3528 102.616 74.904 103.203C73.4551 103.78 71.779 104.069 69.8756 104.069ZM96.6936 81.839V86.9527H82.9294V81.839H96.6936ZM85.8129 76.6118H92.7589V96.7964C92.7589 97.2226 92.8252 97.5682 92.9578 97.8334C93.0999 98.089 93.3035 98.2737 93.5686 98.3873C93.8338 98.4915 94.151 98.5436 94.5203 98.5436C94.7855 98.5436 95.0648 98.5199 95.3584 98.4726C95.6614 98.4157 95.8887 98.3684 96.0402 98.3305L97.0913 103.345C96.7599 103.439 96.2911 103.558 95.6851 103.7C95.0885 103.842 94.3735 103.932 93.5402 103.97C91.9114 104.045 90.5146 103.856 89.3499 103.402C88.1946 102.938 87.3091 102.218 86.6936 101.242C86.0875 100.267 85.794 99.0407 85.8129 97.5635V76.6118ZM110.031 103.657V81.839H116.779V85.8163H117.006C117.404 84.3769 118.052 83.3068 118.952 82.6061C119.851 81.8959 120.898 81.5407 122.091 81.5407C122.413 81.5407 122.744 81.5644 123.085 81.6118C123.426 81.6496 123.744 81.7112 124.037 81.7964V87.8334C123.706 87.7197 123.27 87.6298 122.73 87.5635C122.2 87.4972 121.726 87.464 121.31 87.464C120.486 87.464 119.743 87.6487 119.08 88.018C118.426 88.3779 117.91 88.8845 117.531 89.5379C117.162 90.1818 116.977 90.9394 116.977 91.8106V103.657H110.031ZM127.467 103.657V81.839H134.413V103.657H127.467ZM130.947 79.2964C129.972 79.2964 129.134 78.9745 128.433 78.3305C127.732 77.6771 127.382 76.8911 127.382 75.9726C127.382 75.0635 127.732 74.287 128.433 73.643C129.134 72.9896 129.972 72.6629 130.947 72.6629C131.932 72.6629 132.77 72.9896 133.462 73.643C134.162 74.287 134.513 75.0635 134.513 75.9726C134.513 76.8911 134.162 77.6771 133.462 78.3305C132.77 78.9745 131.932 79.2964 130.947 79.2964ZM147.403 103.97C145.793 103.97 144.33 103.553 143.014 102.72C141.698 101.886 140.647 100.636 139.861 98.9697C139.075 97.3031 138.682 95.2339 138.682 92.7623C138.682 90.1961 139.089 88.0843 139.903 86.4271C140.718 84.7699 141.783 83.5436 143.099 82.7481C144.425 81.9527 145.85 81.555 147.375 81.555C148.521 81.555 149.501 81.7538 150.315 82.1515C151.13 82.5398 151.802 83.0417 152.332 83.6572C152.863 84.2728 153.265 84.912 153.54 85.5748H153.682V74.5663H160.628V103.657H153.753V100.12H153.54C153.246 100.793 152.829 101.422 152.29 102.009C151.75 102.597 151.073 103.07 150.258 103.43C149.453 103.79 148.502 103.97 147.403 103.97ZM149.818 98.5578C150.661 98.5578 151.381 98.3211 151.977 97.8476C152.574 97.3646 153.033 96.6875 153.355 95.8163C153.677 94.9451 153.838 93.9224 153.838 92.7481C153.838 91.555 153.677 90.5275 153.355 89.6657C153.042 88.804 152.583 88.1411 151.977 87.6771C151.381 87.2131 150.661 86.9811 149.818 86.9811C148.956 86.9811 148.227 87.2178 147.631 87.6913C147.034 88.1648 146.579 88.8324 146.267 89.6942C145.964 90.5559 145.812 91.5739 145.812 92.7481C145.812 93.9224 145.969 94.9451 146.281 95.8163C146.594 96.6875 147.043 97.3646 147.631 97.8476C148.227 98.3211 148.956 98.5578 149.818 98.5578ZM184.999 104.069C182.707 104.069 180.738 103.6 179.09 102.663C177.452 101.716 176.187 100.4 175.297 98.714C174.416 97.019 173.976 95.054 173.976 92.8192C173.976 90.5748 174.416 88.6099 175.297 86.9243C176.187 85.2292 177.452 83.9129 179.09 82.9754C180.738 82.0284 182.707 81.555 184.999 81.555C187.291 81.555 189.255 82.0284 190.894 82.9754C192.541 83.9129 193.806 85.2292 194.686 86.9243C195.577 88.6099 196.022 90.5748 196.022 92.8192C196.022 95.054 195.577 97.019 194.686 98.714C193.806 100.4 192.541 101.716 190.894 102.663C189.255 103.6 187.291 104.069 184.999 104.069ZM185.041 98.8277C185.875 98.8277 186.58 98.572 187.158 98.0606C187.736 97.5493 188.176 96.839 188.479 95.93C188.791 95.0209 188.948 93.9697 188.948 92.7765C188.948 91.5644 188.791 90.5038 188.479 89.5947C188.176 88.6856 187.736 87.9754 187.158 87.464C186.58 86.9527 185.875 86.697 185.041 86.697C184.18 86.697 183.451 86.9527 182.854 87.464C182.267 87.9754 181.817 88.6856 181.505 89.5947C181.202 90.5038 181.05 91.5644 181.05 92.7765C181.05 93.9697 181.202 95.0209 181.505 95.93C181.817 96.839 182.267 97.5493 182.854 98.0606C183.451 98.572 184.18 98.8277 185.041 98.8277ZM212.58 81.839V86.9527H198.546V81.839H212.58ZM201.472 103.657V80.7311C201.472 79.0455 201.79 77.6487 202.424 76.5407C203.059 75.4233 203.939 74.59 205.066 74.0407C206.193 73.482 207.495 73.2027 208.972 73.2027C209.938 73.2027 210.847 73.2784 211.7 73.43C212.561 73.572 213.201 73.6998 213.617 73.8135L212.509 78.8987C212.254 78.8135 211.941 78.7425 211.572 78.6856C211.212 78.6288 210.871 78.6004 210.549 78.6004C209.735 78.6004 209.176 78.7803 208.873 79.1402C208.57 79.5 208.418 79.9925 208.418 80.6175V103.657H201.472ZM36.3814 149.97C34.7715 149.97 33.3085 149.553 31.9922 148.72C30.6759 147.886 29.6248 146.636 28.8388 144.97C28.0528 143.303 27.6598 141.234 27.6598 138.762C27.6598 136.196 28.067 134.084 28.8814 132.427C29.6958 130.77 30.7611 129.544 32.0774 128.748C33.4032 127.953 34.8284 127.555 36.353 127.555C37.4988 127.555 38.4789 127.754 39.2933 128.152C40.1077 128.54 40.7801 129.042 41.3104 129.657C41.8407 130.273 42.2431 130.912 42.5178 131.575H42.6598V120.566H49.6058V149.657H42.7308V146.12H42.5178C42.2242 146.793 41.8075 147.422 41.2678 148.009C40.728 148.597 40.0509 149.07 39.2365 149.43C38.4316 149.79 37.4799 149.97 36.3814 149.97ZM38.7962 144.558C39.639 144.558 40.3587 144.321 40.9553 143.848C41.5518 143.365 42.0111 142.688 42.3331 141.816C42.6551 140.945 42.8161 139.922 42.8161 138.748C42.8161 137.555 42.6551 136.527 42.3331 135.666C42.0206 134.804 41.5613 134.141 40.9553 133.677C40.3587 133.213 39.639 132.981 38.7962 132.981C37.9344 132.981 37.2053 133.218 36.6087 133.691C36.0121 134.165 35.5575 134.832 35.245 135.694C34.942 136.556 34.7905 137.574 34.7905 138.748C34.7905 139.922 34.9467 140.945 35.2592 141.816C35.5717 142.688 36.0215 143.365 36.6087 143.848C37.2053 144.321 37.9344 144.558 38.7962 144.558ZM54.5986 149.657V127.839H61.5446V149.657H54.5986ZM58.0787 125.296C57.1033 125.296 56.2652 124.974 55.5645 124.331C54.8637 123.677 54.5134 122.891 54.5134 121.973C54.5134 121.063 54.8637 120.287 55.5645 119.643C56.2652 118.99 57.1033 118.663 58.0787 118.663C59.0635 118.663 59.9016 118.99 60.5929 119.643C61.2937 120.287 61.644 121.063 61.644 121.973C61.644 122.891 61.2937 123.677 60.5929 124.331C59.9016 124.974 59.0635 125.296 58.0787 125.296ZM78.9663 127.839V132.953H64.9322V127.839H78.9663ZM67.8584 149.657V126.731C67.8584 125.045 68.1756 123.649 68.8101 122.541C69.4446 121.423 70.3252 120.59 71.4521 120.041C72.579 119.482 73.8811 119.203 75.3584 119.203C76.3243 119.203 77.2334 119.278 78.0857 119.43C78.9474 119.572 79.5866 119.7 80.0033 119.813L78.8953 124.899C78.6396 124.813 78.3271 124.742 77.9578 124.686C77.598 124.629 77.2571 124.6 76.9351 124.6C76.1207 124.6 75.562 124.78 75.2589 125.14C74.9559 125.5 74.8044 125.992 74.8044 126.617V149.657H67.8584ZM95.3085 127.839V132.953H81.2744V127.839H95.3085ZM84.2006 149.657V126.731C84.2006 125.045 84.5178 123.649 85.1523 122.541C85.7867 121.423 86.6674 120.59 87.7943 120.041C88.9212 119.482 90.2233 119.203 91.7006 119.203C92.6665 119.203 93.5756 119.278 94.4278 119.43C95.2896 119.572 95.9288 119.7 96.3455 119.813L95.2375 124.899C94.9818 124.813 94.6693 124.742 94.3 124.686C93.9402 124.629 93.5992 124.6 93.2773 124.6C92.4629 124.6 91.9042 124.78 91.6011 125.14C91.2981 125.5 91.1466 125.992 91.1466 126.617V149.657H84.2006ZM108.746 150.069C106.464 150.069 104.494 149.619 102.837 148.72C101.189 147.811 99.9201 146.518 99.03 144.842C98.1493 143.156 97.709 141.153 97.709 138.833C97.709 136.58 98.154 134.61 99.0442 132.924C99.9343 131.229 101.189 129.913 102.808 128.975C104.428 128.028 106.336 127.555 108.533 127.555C110.086 127.555 111.506 127.796 112.794 128.279C114.082 128.762 115.195 129.477 116.132 130.424C117.07 131.371 117.799 132.541 118.32 133.933C118.841 135.315 119.101 136.902 119.101 138.691V140.424H100.138V136.39H112.638C112.628 135.652 112.453 134.993 112.112 134.416C111.771 133.838 111.303 133.388 110.706 133.066C110.119 132.735 109.442 132.569 108.675 132.569C107.898 132.569 107.202 132.744 106.587 133.095C105.971 133.436 105.484 133.904 105.124 134.501C104.764 135.088 104.574 135.756 104.556 136.504V140.609C104.556 141.499 104.731 142.28 105.081 142.953C105.431 143.616 105.929 144.132 106.573 144.501C107.217 144.87 107.984 145.055 108.874 145.055C109.489 145.055 110.048 144.97 110.55 144.799C111.052 144.629 111.483 144.378 111.842 144.046C112.202 143.715 112.472 143.308 112.652 142.825L119.03 143.009C118.765 144.439 118.182 145.685 117.283 146.745C116.393 147.796 115.223 148.616 113.774 149.203C112.325 149.78 110.649 150.069 108.746 150.069ZM123.249 149.657V127.839H129.996V131.816H130.223C130.621 130.377 131.269 129.307 132.169 128.606C133.069 127.896 134.115 127.541 135.308 127.541C135.63 127.541 135.962 127.564 136.303 127.612C136.643 127.65 136.961 127.711 137.254 127.796V133.833C136.923 133.72 136.487 133.63 135.947 133.563C135.417 133.497 134.944 133.464 134.527 133.464C133.703 133.464 132.96 133.649 132.297 134.018C131.643 134.378 131.127 134.884 130.749 135.538C130.379 136.182 130.195 136.939 130.195 137.811V149.657H123.249ZM149.751 150.069C147.468 150.069 145.499 149.619 143.841 148.72C142.194 147.811 140.925 146.518 140.035 144.842C139.154 143.156 138.714 141.153 138.714 138.833C138.714 136.58 139.159 134.61 140.049 132.924C140.939 131.229 142.194 129.913 143.813 128.975C145.432 128.028 147.341 127.555 149.537 127.555C151.091 127.555 152.511 127.796 153.799 128.279C155.087 128.762 156.199 129.477 157.137 130.424C158.074 131.371 158.804 132.541 159.324 133.933C159.845 135.315 160.106 136.902 160.106 138.691V140.424H141.143V136.39H153.643C153.633 135.652 153.458 134.993 153.117 134.416C152.776 133.838 152.307 133.388 151.711 133.066C151.124 132.735 150.447 132.569 149.68 132.569C148.903 132.569 148.207 132.744 147.591 133.095C146.976 133.436 146.488 133.904 146.128 134.501C145.769 135.088 145.579 135.756 145.56 136.504V140.609C145.56 141.499 145.735 142.28 146.086 142.953C146.436 143.616 146.933 144.132 147.577 144.501C148.221 144.87 148.988 145.055 149.878 145.055C150.494 145.055 151.053 144.97 151.555 144.799C152.056 144.629 152.487 144.378 152.847 144.046C153.207 143.715 153.477 143.308 153.657 142.825L160.035 143.009C159.77 144.439 159.187 145.685 158.287 146.745C157.397 147.796 156.228 148.616 154.779 149.203C153.33 149.78 151.654 150.069 149.751 150.069ZM171.199 137.214V149.657H164.253V127.839H170.858V131.845H171.1C171.583 130.509 172.407 129.463 173.571 128.706C174.736 127.938 176.124 127.555 177.733 127.555C179.267 127.555 180.598 127.901 181.725 128.592C182.861 129.274 183.742 130.23 184.367 131.461C185.001 132.683 185.314 134.113 185.304 135.751V149.657H178.358V137.115C178.368 135.902 178.06 134.956 177.435 134.274C176.82 133.592 175.963 133.251 174.864 133.251C174.135 133.251 173.491 133.412 172.932 133.734C172.383 134.046 171.957 134.496 171.654 135.083C171.36 135.67 171.209 136.381 171.199 137.214ZM202.52 127.839V132.953H188.756V127.839H202.52ZM191.639 122.612H198.586V142.796C198.586 143.223 198.652 143.568 198.784 143.833C198.926 144.089 199.13 144.274 199.395 144.387C199.66 144.492 199.978 144.544 200.347 144.544C200.612 144.544 200.891 144.52 201.185 144.473C201.488 144.416 201.715 144.368 201.867 144.331L202.918 149.345C202.586 149.439 202.118 149.558 201.512 149.7C200.915 149.842 200.2 149.932 199.367 149.97C197.738 150.045 196.341 149.856 195.176 149.402C194.021 148.938 193.136 148.218 192.52 147.242C191.914 146.267 191.621 145.041 191.639 143.563V122.612ZM228.173 127.839V132.953H214.409V127.839H228.173ZM217.293 122.612H224.239V142.796C224.239 143.223 224.305 143.568 224.438 143.833C224.58 144.089 224.783 144.274 225.048 144.387C225.313 144.492 225.631 144.544 226 144.544C226.265 144.544 226.545 144.52 226.838 144.473C227.141 144.416 227.368 144.368 227.52 144.331L228.571 149.345C228.24 149.439 227.771 149.558 227.165 149.7C226.568 149.842 225.853 149.932 225.02 149.97C223.391 150.045 221.994 149.856 220.83 149.402C219.674 148.938 218.789 148.218 218.173 147.242C217.567 146.267 217.274 145.041 217.293 143.563V122.612ZM242.268 150.069C239.976 150.069 238.006 149.6 236.359 148.663C234.72 147.716 233.456 146.4 232.566 144.714C231.685 143.019 231.245 141.054 231.245 138.819C231.245 136.575 231.685 134.61 232.566 132.924C233.456 131.229 234.72 129.913 236.359 128.975C238.006 128.028 239.976 127.555 242.268 127.555C244.559 127.555 246.524 128.028 248.163 128.975C249.81 129.913 251.074 131.229 251.955 132.924C252.845 134.61 253.29 136.575 253.29 138.819C253.29 141.054 252.845 143.019 251.955 144.714C251.074 146.4 249.81 147.716 248.163 148.663C246.524 149.6 244.559 150.069 242.268 150.069ZM242.31 144.828C243.144 144.828 243.849 144.572 244.427 144.061C245.004 143.549 245.445 142.839 245.748 141.93C246.06 141.021 246.216 139.97 246.216 138.777C246.216 137.564 246.06 136.504 245.748 135.595C245.445 134.686 245.004 133.975 244.427 133.464C243.849 132.953 243.144 132.697 242.31 132.697C241.448 132.697 240.719 132.953 240.123 133.464C239.536 133.975 239.086 134.686 238.773 135.595C238.47 136.504 238.319 137.564 238.319 138.777C238.319 139.97 238.47 141.021 238.773 141.93C239.086 142.839 239.536 143.549 240.123 144.061C240.719 144.572 241.448 144.828 242.31 144.828ZM267.633 150.069C265.342 150.069 263.372 149.6 261.724 148.663C260.086 147.716 258.822 146.4 257.932 144.714C257.051 143.019 256.611 141.054 256.611 138.819C256.611 136.575 257.051 134.61 257.932 132.924C258.822 131.229 260.086 129.913 261.724 128.975C263.372 128.028 265.342 127.555 267.633 127.555C269.925 127.555 271.89 128.028 273.528 128.975C275.176 129.913 276.44 131.229 277.321 132.924C278.211 134.61 278.656 136.575 278.656 138.819C278.656 141.054 278.211 143.019 277.321 144.714C276.44 146.4 275.176 147.716 273.528 148.663C271.89 149.6 269.925 150.069 267.633 150.069ZM267.676 144.828C268.509 144.828 269.215 144.572 269.792 144.061C270.37 143.549 270.81 142.839 271.113 141.93C271.426 141.021 271.582 139.97 271.582 138.777C271.582 137.564 271.426 136.504 271.113 135.595C270.81 134.686 270.37 133.975 269.792 133.464C269.215 132.953 268.509 132.697 267.676 132.697C266.814 132.697 266.085 132.953 265.488 133.464C264.901 133.975 264.451 134.686 264.139 135.595C263.836 136.504 263.684 137.564 263.684 138.777C263.684 139.97 263.836 141.021 264.139 141.93C264.451 142.839 264.901 143.549 265.488 144.061C266.085 144.572 266.814 144.828 267.676 144.828ZM289.76 120.566V149.657H282.814V120.566H289.76ZM313.83 134.501L307.452 134.671C307.386 134.217 307.206 133.814 306.912 133.464C306.619 133.104 306.235 132.825 305.762 132.626C305.297 132.418 304.758 132.313 304.142 132.313C303.337 132.313 302.651 132.474 302.083 132.796C301.524 133.118 301.249 133.554 301.259 134.103C301.249 134.529 301.42 134.899 301.77 135.211C302.13 135.524 302.769 135.775 303.688 135.964L307.892 136.759C310.07 137.176 311.69 137.867 312.75 138.833C313.82 139.799 314.36 141.078 314.369 142.669C314.36 144.165 313.915 145.467 313.034 146.575C312.163 147.683 310.97 148.545 309.455 149.16C307.94 149.766 306.207 150.069 304.256 150.069C301.14 150.069 298.683 149.43 296.884 148.152C295.094 146.864 294.071 145.14 293.815 142.981L300.676 142.811C300.828 143.606 301.221 144.212 301.855 144.629C302.49 145.045 303.299 145.254 304.284 145.254C305.174 145.254 305.899 145.088 306.458 144.757C307.016 144.425 307.3 143.985 307.31 143.436C307.3 142.943 307.083 142.55 306.656 142.257C306.23 141.954 305.563 141.717 304.654 141.546L300.847 140.822C298.659 140.424 297.03 139.69 295.96 138.62C294.89 137.541 294.36 136.168 294.369 134.501C294.36 133.043 294.748 131.797 295.534 130.765C296.32 129.724 297.438 128.928 298.886 128.379C300.335 127.83 302.045 127.555 304.014 127.555C306.969 127.555 309.298 128.175 311.003 129.416C312.708 130.647 313.65 132.342 313.83 134.501Z" fill="#383A48"/>
<rect x="0.351562" y="0.84668" width="354" height="31.4015" fill="#383A48"/>
<circle cx="17.4304" cy="16.5485" r="4.61787" fill="#E06A63"/>
<circle cx="34.0632" cy="16.5485" r="4.61787" fill="#F6E049"/>
<circle cx="50.6921" cy="16.5485" r="4.61787" fill="#7FD6C2"/>
<rect x="285.426" y="73.6787" width="39.7024" height="11.3435" transform="rotate(135 285.426 73.6787)" fill="#6A00EF"/>
<rect x="257.352" y="65.6572" width="39.7024" height="11.3435" transform="rotate(45 257.352 65.6572)" fill="#6A00EF"/>
</g>
<rect x="2.19871" y="2.69383" width="350.306" height="194.306" stroke="#383A48" stroke-width="3.6943"/>
<defs>
<clipPath id="clip0_5986_2449">
<rect x="0.351562" y="0.84668" width="354" height="198" fill="white"/>
</clipPath>
</defs>
</svg>
