<svg width="296" height="303" viewBox="0 0 296 303" fill="none" xmlns="http://www.w3.org/2000/svg"><g clip-path="url(#clip0_1202_6166)"><g opacity="0.2"><path d="M295.712 107.181H0V108.686H295.712V107.181Z" fill="#fff"></path><path d="M295.712 277.374H0V278.878H295.712V277.374Z" fill="#fff"></path><path d="M295.712 22.085H0V23.5892H295.712V22.085Z" fill="#fff"></path><path d="M295.712 192.278H0V193.782H295.712V192.278Z" fill="#fff"></path><path d="M19.7109 0.0163413V302.893L21.2151 302.876V3.05176e-05L19.7109 0.0163413Z" fill="#fff"></path><path d="M189.898 0.034896V302.911L191.403 302.895V0.0185852L189.898 0.034896Z" fill="#fff"></path><path d="M104.805 0.0251304V302.901L106.309 302.885V0.00881958L104.805 0.0251304Z" fill="#fff"></path><path d="M275 0.0436851V302.92L276.504 302.904V0.0273743L275 0.0436851Z" fill="#fff"></path></g></g><defs><clipPath id="clip0_1202_6166"><rect width="296" height="303" fill="white"></rect></clipPath></defs></svg>