<svg width="230" height="192" viewBox="0 0 230 192" fill="none" xmlns="http://www.w3.org/2000/svg">
<g opacity="0.2">
<path d="M224.055 191.679C226.635 191.679 228.728 189.587 228.728 187.006C228.728 184.425 226.635 182.333 224.055 182.333C221.474 182.333 219.381 184.425 219.381 187.006C219.381 189.587 221.474 191.679 224.055 191.679Z" fill="white"/>
<path d="M226.429 147.173C228.254 145.348 228.254 142.389 226.429 140.564C224.604 138.739 221.645 138.739 219.82 140.564C217.995 142.389 217.995 145.348 219.82 147.173C221.645 148.998 224.604 148.998 226.429 147.173Z" fill="white"/>
<path d="M228.333 101.46C228.926 98.9478 227.371 96.4307 224.859 95.8376C222.347 95.2445 219.83 96.7999 219.237 99.3118C218.644 101.824 220.199 104.341 222.711 104.934C225.223 105.527 227.74 103.971 228.333 101.46Z" fill="white"/>
<path d="M224.055 55.5802C226.635 55.5802 228.728 53.488 228.728 50.907C228.728 48.3261 226.635 46.2339 224.055 46.2339C221.474 46.2339 219.381 48.3261 219.381 50.907C219.381 53.488 221.474 55.5802 224.055 55.5802Z" fill="white"/>
<path d="M226.412 11.0818C228.237 9.25678 228.237 6.2979 226.412 4.47292C224.587 2.64794 221.628 2.64794 219.803 4.47292C217.978 6.2979 217.978 9.25678 219.803 11.0818C221.628 12.9068 224.587 12.9068 226.412 11.0818Z" fill="white"/>
<path d="M169.93 191.679C172.511 191.679 174.603 189.587 174.603 187.006C174.603 184.425 172.511 182.333 169.93 182.333C167.349 182.333 165.257 184.425 165.257 187.006C165.257 189.587 167.349 191.679 169.93 191.679Z" fill="white"/>
<path d="M172.304 147.173C174.129 145.348 174.129 142.389 172.304 140.564C170.479 138.739 167.52 138.739 165.695 140.564C163.87 142.389 163.87 145.348 165.695 147.173C167.52 148.998 170.479 148.998 172.304 147.173Z" fill="white"/>
<path d="M174.208 101.46C174.801 98.9478 173.246 96.4307 170.734 95.8376C168.222 95.2445 165.705 96.7999 165.112 99.3118C164.519 101.824 166.074 104.341 168.586 104.934C171.098 105.527 173.615 103.971 174.208 101.46Z" fill="white"/>
<path d="M169.93 55.5802C172.511 55.5802 174.603 53.488 174.603 50.907C174.603 48.3261 172.511 46.2339 169.93 46.2339C167.349 46.2339 165.257 48.3261 165.257 50.907C165.257 53.488 167.349 55.5802 169.93 55.5802Z" fill="white"/>
<path d="M172.287 11.0818C174.112 9.25678 174.112 6.2979 172.287 4.47292C170.462 2.64794 167.503 2.64794 165.678 4.47292C163.853 6.2979 163.853 9.25678 165.678 11.0818C167.503 12.9068 170.462 12.9068 172.287 11.0818Z" fill="white"/>
<path d="M115.805 191.679C118.386 191.679 120.478 189.587 120.478 187.006C120.478 184.425 118.386 182.333 115.805 182.333C113.224 182.333 111.132 184.425 111.132 187.006C111.132 189.587 113.224 191.679 115.805 191.679Z" fill="white"/>
<path d="M118.179 147.173C120.004 145.348 120.004 142.389 118.179 140.564C116.354 138.739 113.396 138.739 111.571 140.564C109.746 142.389 109.746 145.348 111.571 147.173C113.396 148.998 116.354 148.998 118.179 147.173Z" fill="white"/>
<path d="M120.083 101.46C120.677 98.9478 119.121 96.4307 116.609 95.8376C114.097 95.2445 111.58 96.7999 110.987 99.3118C110.394 101.824 111.95 104.341 114.461 104.934C116.973 105.527 119.49 103.971 120.083 101.46Z" fill="white"/>
<path d="M115.805 55.5802C118.386 55.5802 120.478 53.488 120.478 50.907C120.478 48.3261 118.386 46.2339 115.805 46.2339C113.224 46.2339 111.132 48.3261 111.132 50.907C111.132 53.488 113.224 55.5802 115.805 55.5802Z" fill="white"/>
<path d="M118.163 11.0818C119.988 9.25678 119.988 6.2979 118.163 4.47292C116.338 2.64794 113.379 2.64794 111.554 4.47292C109.729 6.2979 109.729 9.25678 111.554 11.0818C113.379 12.9068 116.338 12.9068 118.163 11.0818Z" fill="white"/>
<path d="M61.6805 191.679C64.2614 191.679 66.3537 189.587 66.3537 187.006C66.3537 184.425 64.2614 182.333 61.6805 182.333C59.0996 182.333 57.0074 184.425 57.0074 187.006C57.0074 189.587 59.0996 191.679 61.6805 191.679Z" fill="white"/>
<path d="M64.0548 147.173C65.8798 145.348 65.8798 142.389 64.0548 140.564C62.2298 138.739 59.2709 138.739 57.446 140.564C55.621 142.389 55.621 145.348 57.446 147.173C59.2709 148.998 62.2298 148.998 64.0548 147.173Z" fill="white"/>
<path d="M65.9588 101.46C66.552 98.9478 64.9965 96.4307 62.4847 95.8376C59.9728 95.2445 57.4558 96.7999 56.8627 99.3118C56.2695 101.824 57.825 104.341 60.3368 104.934C62.8487 105.527 65.3657 103.971 65.9588 101.46Z" fill="white"/>
<path d="M61.6805 55.5802C64.2614 55.5802 66.3537 53.488 66.3537 50.907C66.3537 48.3261 64.2614 46.2339 61.6805 46.2339C59.0996 46.2339 57.0074 48.3261 57.0074 50.907C57.0074 53.488 59.0996 55.5802 61.6805 55.5802Z" fill="white"/>
<path d="M64.038 11.0818C65.863 9.25678 65.863 6.2979 64.038 4.47292C62.213 2.64794 59.2541 2.64794 57.4291 4.47292C55.6041 6.2979 55.6041 9.25678 57.4291 11.0818C59.2541 12.9068 62.213 12.9068 64.038 11.0818Z" fill="white"/>
<path d="M7.55582 190.511C10.1367 190.511 12.229 188.419 12.229 185.838C12.229 183.257 10.1367 181.165 7.55582 181.165C4.97491 181.165 2.88266 183.257 2.88266 185.838C2.88266 188.419 4.97491 190.511 7.55582 190.511Z" fill="white"/>
<path d="M9.93009 146.004C11.7551 144.179 11.7551 141.221 9.93009 139.396C8.1051 137.571 5.14622 137.571 3.32124 139.396C1.49626 141.221 1.49626 144.179 3.32124 146.004C5.14622 147.829 8.1051 147.829 9.93009 146.004Z" fill="white"/>
<path d="M11.8341 100.291C12.4272 97.7793 10.8718 95.2623 8.35995 94.6692C5.84811 94.076 3.33105 95.6315 2.73793 98.1433C2.14482 100.655 3.70025 103.172 6.21209 103.765C8.72393 104.358 11.241 102.803 11.8341 100.291Z" fill="white"/>
<path d="M7.55582 54.4118C10.1367 54.4118 12.229 52.3195 12.229 49.7386C12.229 47.1577 10.1367 45.0654 7.55582 45.0654C4.97491 45.0654 2.88266 47.1577 2.88266 49.7386C2.88266 52.3195 4.97491 54.4118 7.55582 54.4118Z" fill="white"/>
<path d="M9.91327 9.91331C11.7383 8.08833 11.7383 5.12945 9.91327 3.30446C8.08829 1.47948 5.12941 1.47948 3.30442 3.30446C1.47944 5.12945 1.47944 8.08833 3.30442 9.91331C5.12941 11.7383 8.08829 11.7383 9.91327 9.91331Z" fill="white"/>
</g>
</svg>
