<?xml version="1.0" encoding="utf-8"?>
<!-- Generator: Adobe Illustrator 27.2.0, SVG Export Plug-In . SVG Version: 6.00 Build 0)  -->
<svg version="1.1" id="Layer_1" xmlns="http://www.w3.org/2000/svg" xmlns:xlink="http://www.w3.org/1999/xlink" x="0px" y="0px"
	 viewBox="0 0 534.88 114.15" style="enable-background:new 0 0 534.88 114.15;" xml:space="preserve">
<style type="text/css">
	.st0{fill:#FFFFFF;}
	.st1{fill:#141414;}
</style>
<g>
	<g>
		<path class="st1" d="M158.78,29.49c-2.92,0-5.44-1.07-7.58-3.21c-2.14-2.14-3.21-4.66-3.21-7.58c0-2.91,1.07-5.46,3.21-7.65
			c2.14-2.19,4.67-3.28,7.58-3.28c3,0,5.58,1.09,7.72,3.28c2.14,2.19,3.21,4.74,3.21,7.65c0,2.92-1.07,5.44-3.21,7.58
			C164.35,28.42,161.78,29.49,158.78,29.49z M150.04,105.97V37.68h17.62v68.29H150.04z"/>
		<path class="st1" d="M252.2,105.97h-20.35l-14.82-20.7l-14.82,20.7h-20.35l25.03-34.86l-23.94-33.43h20.35l13.77,19.24
			l13.81-19.24h20.21l-23.9,33.38L252.2,105.97z"/>
		<path class="st1" d="M303.14,25.39c-9.65-0.73-14.48,3.14-14.48,11.61v0.68h14.48v16.94h-14.48v51.35h-17.62V54.62h-9.83V37.68
			h9.83V37c0-9.65,2.68-16.98,8.06-21.99c5.37-5.01,13.38-7.19,24.04-6.56V25.39z"/>
		<path class="st1" d="M318.02,105.97V6.27h17.62v99.7H318.02z"/>
		<path class="st1" d="M415.4,97.43c-7.01,6.97-15.57,10.45-25.68,10.45c-10.11,0-18.64-3.48-25.61-10.45
			c-6.97-6.96-10.45-15.5-10.45-25.61c0-10.11,3.48-18.64,10.45-25.61c6.97-6.97,15.5-10.45,25.61-10.45
			c10.11,0,18.66,3.48,25.68,10.45c7.01,6.96,10.52,15.5,10.52,25.61C425.92,81.93,422.41,90.47,415.4,97.43z M376.54,85.35
			c3.5,3.55,7.9,5.33,13.18,5.33c5.28,0,9.7-1.78,13.25-5.33c3.55-3.55,5.33-8.06,5.33-13.52c0-5.46-1.78-9.97-5.33-13.52
			c-3.55-3.55-7.97-5.33-13.25-5.33c-5.28,0-9.68,1.78-13.18,5.33c-3.51,3.55-5.26,8.06-5.26,13.52
			C371.29,77.29,373.04,81.79,376.54,85.35z"/>
		<path class="st1" d="M517.97,37.68h16.91l-19.91,68.29H497.7l-12.92-41.38l-12.92,41.38h-17.27l-20.07-68.29h18.63l11.69,41.93
			l12.44-41.93h16.67l12.44,42.08L517.97,37.68z"/>
	</g>
	<g>
		<g>
			<polygon class="st1" points="8.88,0 145.08,0 76.32,80.28 81.49,30.86 			"/>
		</g>
		<g>
			<polygon class="st1" points="136.21,114.15 0,114.15 68.76,33.87 63.59,83.29 			"/>
		</g>
	</g>
</g>
</svg>
