<svg width="296" height="303" viewBox="0 0 296 303" fill="none" xmlns="http://www.w3.org/2000/svg">
<g opacity="0.2">
<path d="M295.712 107.181H0V108.686H295.712V107.181Z" fill="#015584"/>
<path d="M295.712 277.374H0V278.878H295.712V277.374Z" fill="#015584"/>
<path d="M295.712 22.085H0V23.5892H295.712V22.085Z" fill="#015584"/>
<path d="M295.712 192.278H0V193.782H295.712V192.278Z" fill="#015584"/>
<path d="M19.7109 0.0163269L19.7109 302.893L21.2151 302.876L21.2151 1.61271e-05L19.7109 0.0163269Z" fill="#015584"/>
<path d="M189.898 0.0348816L189.898 302.911L191.403 302.895L191.403 0.0185708L189.898 0.0348816Z" fill="#015584"/>
<path d="M104.805 0.025116L104.805 302.901L106.309 302.885L106.309 0.00880519L104.805 0.025116Z" fill="#015584"/>
<path d="M275 0.0436707L275 302.92L276.504 302.904L276.504 0.0273599L275 0.0436707Z" fill="#015584"/>
</g>
</svg>
